<svg width="396" height="92" viewBox="0 0 396 92" fill="none" xmlns="http://www.w3.org/2000/svg">
<path d="M166.98 68V60.09C162.98 64.5 154.74 69.31 141.85 69.31C121.37 69.31 108.89 55.2 108.89 39.04C108.89 22.88 122.11 9.02002 143.32 9.02002C154.82 9.02002 168.28 13.43 173.75 24.19L165.76 26.64C162.33 21.58 155.48 16.03 143.9 16.03C129.79 16.03 117.63 24.03 117.63 38.71C117.63 54.37 130.03 62.45 143.65 62.45C151.64 62.45 160.62 59.02 164.94 51.93C166.49 49.32 166.82 47.36 167.22 44.51H141.85V37.66H174.07V68.01H166.97L166.98 68Z" fill="#5E050C"/>
<path d="M224.82 68V62.94C224.09 63.59 222.78 64.73 220.66 66.04C215.44 69.22 209.08 69.38 207.28 69.38C202.14 69.38 191.21 67.91 187.46 60.08C185.83 56.74 185.83 52.66 185.83 49.07V28.19H193.5V48.26C193.5 52.26 193.83 54.3 194.56 56.09C197.25 62.37 206.47 62.54 208.02 62.54C216.42 62.54 221.64 58.62 223.44 55.61C224.66 53.49 224.66 51.61 224.66 49.25V28.2H232.41V68.01H224.82V68Z" fill="#5E050C"/>
<path d="M304.77 68V62.7C302.89 64.41 297.75 68.74 286.9 68.74C284.45 68.74 277.44 68.58 271.48 64.17C268.87 62.29 263.24 56.99 263.24 47.77C263.24 45 263.81 38.47 269.68 33.25C272.29 30.97 278.16 27.21 287.14 27.21C290 27.21 298.07 27.62 304.76 32.84V10.41H312.51V68.01H304.76L304.77 68ZM301.1 37.73C296.37 33.49 289.6 33.41 287.64 33.41C278.34 33.41 271.32 38.96 271.32 48.42C271.32 56.25 277.03 62.37 287.88 62.37C295.3 62.37 305.18 59.6 305.18 47.69C305.18 45.81 305.1 41.33 301.1 37.74V37.73Z" fill="#5E050C"/>
<path d="M252.78 28.18H245.03V67.99H252.78V28.18Z" fill="#5E050C"/>
<path d="M252.38 14.83C251.1 13.68 249.27 13.66 248.74 13.66C246.22 13.66 244.33 15.16 244.33 17.72C244.33 19.84 245.87 21.49 248.81 21.49C250.82 21.49 253.49 20.74 253.49 17.52C253.49 17.01 253.47 15.8 252.39 14.83H252.38Z" fill="#5E050C"/>
<path d="M332.25 14.83C330.97 13.68 329.14 13.66 328.61 13.66C326.09 13.66 324.2 15.16 324.2 17.72C324.2 19.84 325.74 21.49 328.68 21.49C330.69 21.49 333.36 20.74 333.36 17.52C333.36 17.01 333.34 15.8 332.26 14.83H332.25Z" fill="#5E050C"/>
<path d="M332.65 28.18H324.9V67.99H332.65V28.18Z" fill="#5E050C"/>
<path d="M388.15 68.4C381.38 68.4 380.81 64.57 380.48 61.63C379.01 64.57 373.22 69.46 361.31 69.46C346.14 69.46 342.63 61.3 342.63 55.75C342.63 48.9 347.52 45.96 349.65 45.06C353.48 43.35 359.68 43.18 369.07 43.18H380.41V42.2C380.41 37.31 380.33 32.57 367.19 32.57C361.23 32.57 354.79 33.63 353.08 37.79L345.25 37.06C345.33 36.73 346.07 34.61 347.04 33.14C348.59 30.86 352.02 26.94 366.78 26.94C367.92 26.94 373.55 27.02 378.12 28.16C379.18 28.4 383.34 29.3 385.71 32.48C387.67 35.09 387.67 37.78 387.67 40.8V56.71C387.67 61.28 388.4 62.83 392.16 62.83C392.89 62.83 395.02 62.59 395.02 62.59V67.97C392.74 68.13 390.45 68.38 388.17 68.38L388.15 68.4ZM365.88 49.15C358.05 49.15 350.38 49.15 350.38 55.68C350.38 59.6 353.97 63.51 361.88 63.51C366.53 63.51 375.34 62.45 379.01 55.68C380.48 52.91 380.4 50.3 380.48 49.15H365.88Z" fill="#5E050C"/>
<path d="M29.0498 88.25C29.3298 86.51 29.5998 84.77 29.9098 83.04C29.9398 82.86 30.1698 82.64 30.3498 82.58C32.9898 81.78 35.2498 80.33 37.1798 78.42C38.2998 77.31 39.2197 76.01 40.2397 74.8C40.4997 74.49 40.3698 74.29 40.0998 74.11C38.7798 73.21 38.4098 71.8 38.1598 70.36C38.1298 70.21 38.3398 69.89 38.4998 69.84C40.5198 69.17 42.5597 69.13 44.5998 69.78C44.7298 69.82 44.8698 70.06 44.8797 70.21C44.9198 71.45 44.7798 72.75 44.0098 73.68C43.4598 74.34 43.4898 74.93 43.4998 75.6C43.5498 79.84 42.2398 83.67 39.9098 87.14C38.9298 88.6 37.5998 89.84 36.3998 91.15C36.2598 91.3 35.9198 91.37 35.6997 91.33C33.6597 91.03 31.6098 90.7 29.5798 90.35C29.4198 90.32 29.2098 90.07 29.1998 89.9C29.1498 89.36 29.1798 88.81 29.1798 88.27C29.1398 88.27 29.0898 88.26 29.0498 88.25ZM42.8898 45.62C42.2198 44.55 41.4698 43.5499 40.1398 43.16C38.9298 42.81 37.9798 43.28 37.4698 44.44C36.5098 46.63 38.3198 50.72 40.5398 51.78C41.5398 52.25 42.9698 52.01 43.3198 51.28C43.6298 50.62 43.7998 49.9 43.9598 49.42C43.7998 47.92 43.5698 46.69 42.8998 45.63L42.8898 45.62ZM52.0597 41.38C51.6597 40.8 51.2397 40.25 50.4897 40.1C49.8397 39.97 49.5798 40.14 49.5498 40.8C49.4298 43.34 50.4098 45.45 52.1398 47.25C52.4798 47.6 52.9598 47.96 53.3998 47.65C53.6998 47.44 53.7698 46.89 53.9398 46.49C53.9598 46.43 53.9398 46.36 53.9398 46.3C53.7898 44.48 53.0897 42.86 52.0597 41.38ZM92.7798 58.58C91.7398 61.78 89.7898 64.31 87.1598 66.32C85.7498 67.4 84.1598 68.19 82.4398 68.73C81.0098 69.18 79.6398 69.78 78.2398 70.31C77.1598 70.71 76.0798 71.12 74.9998 71.5C73.6698 71.97 72.3198 72.4 70.9898 72.88C69.4998 73.42 68.0198 74 66.5298 74.55C65.5098 74.93 64.4998 75.31 63.4698 75.67C62.0298 76.17 60.5798 76.64 59.1498 77.16C57.6798 77.6899 56.2198 78.27 54.7598 78.82C54.4998 78.92 54.2397 79.01 53.8797 78.99C54.0597 78.72 54.2598 78.45 54.4198 78.17C56.7897 74.23 59.9198 70.93 63.3097 67.88C66.0498 65.42 68.5098 62.75 70.3498 59.55C71.8998 56.86 73.1497 54.04 74.0598 51.07C74.1798 50.68 74.0798 50.5 73.6998 50.41C73.2098 50.29 72.7298 50.15 72.1998 50.01C72.4398 49.48 72.6598 48.95 72.9098 48.43C74.2198 45.7 74.9297 42.81 75.0898 39.81C75.1398 38.95 74.8498 38.06 74.6598 37.2C74.5998 36.95 74.3798 36.71 74.1798 36.53C73.5998 36.02 73.0598 36.1699 72.8598 36.91C72.5998 37.88 72.4098 38.86 72.1698 39.83C72.1298 40 71.9798 40.14 71.8898 40.29C71.7698 40.13 71.5698 39.99 71.5298 39.82C71.1998 38.53 70.9297 37.23 70.5898 35.95C70.2498 34.69 69.3498 33.9 68.3698 33.87C67.8298 33.85 67.5398 34.03 67.5698 34.61C67.6498 36.04 67.7098 37.48 67.7698 38.92C67.7698 39.13 67.7698 39.35 67.7698 39.57C67.2498 39.75 67.0498 39.56 66.9098 39.04C66.5198 37.59 66.1498 36.11 65.0098 35.02C64.7298 34.75 64.3898 34.53 64.0398 34.38C63.3198 34.08 62.9098 34.38 63.0098 35.15C63.1698 36.29 63.3597 37.43 63.5998 38.56C64.2098 41.5 64.1797 44.45 63.6698 47.39C63.6497 47.49 63.6097 47.59 63.5597 47.74C63.1398 47.65 62.7197 47.59 62.3397 47.46C61.8497 47.29 61.7298 47.43 61.6498 47.94C61.0098 52.23 59.5298 56.18 56.4998 59.37C55.1798 60.76 53.5598 61.87 52.0698 63.1C51.9298 63.21 51.7397 63.26 51.4897 63.21C52.0698 62.75 52.6898 62.33 53.2397 61.83C55.5897 59.68 56.9298 57.04 57.1398 53.83C57.3798 50.12 56.4998 46.62 55.2498 43.17C54.2798 40.48 52.5798 38.3 50.5197 36.38C49.9397 35.84 49.2397 35.41 48.5597 34.99C48.2497 34.79 48.1498 34.64 48.2498 34.27C48.9498 31.53 48.7998 28.83 47.7898 26.19C47.5398 25.54 47.4598 25.55 46.8797 25.99C45.4697 27.06 44.0497 28.11 42.6297 29.17C41.5098 30.01 40.3898 30.86 39.2998 31.68C38.9298 30.14 38.5498 28.58 38.1398 26.87C37.8298 27.1 37.6798 27.21 37.5398 27.31C36.2698 28.23 34.9898 29.15 33.7298 30.09C33.1598 30.51 32.6198 30.99 32.0398 31.41C30.1798 32.79 28.2998 34.13 26.4598 35.54C23.2498 38.01 20.8698 41.11 19.6398 45C18.9798 47.09 18.6698 49.24 18.8398 51.45C18.8798 51.9 18.7798 52.18 18.4098 52.51C17.1998 53.55 16.8198 55 16.8598 56.52C16.8998 58.03 17.4098 59.44 18.3598 60.63C19.5398 62.1 21.1098 62.72 22.9798 62.51C23.5098 62.45 23.8298 62.51 24.2198 63C24.7198 63.65 25.4898 64.09 26.1798 64.58C26.7398 64.98 27.3498 65.31 27.9498 65.66C31.1098 67.57 34.6098 67.98 38.2098 67.92C38.3797 67.92 38.5498 67.92 38.7098 67.92C38.7197 67.98 38.7398 68.03 38.7498 68.09C38.3698 68.2 37.9998 68.34 37.6198 68.41C34.3798 68.9999 31.1198 69.26 27.8798 68.49C26.5398 68.17 25.2698 67.56 24.0098 66.98C23.2498 66.63 22.5798 66.09 21.8498 65.66C21.7298 65.59 21.5498 65.55 21.4198 65.59C19.3098 66.2 17.2498 66.92 15.3798 68.1C13.4198 69.33 11.6398 70.7899 10.3498 72.7199C9.27975 74.3199 8.40975 76.05 7.52975 77.58C7.34975 74.66 7.67975 71.61 9.19975 68.77C9.32975 68.53 9.37975 68.15 9.28975 67.9C7.31975 62.44 5.30975 56.99 3.33975 51.52C2.60975 49.5 1.75975 47.48 1.33975 45.39C0.0997533 39.14 2.11975 33.96 6.88975 29.79C8.67975 28.23 10.7897 27.3 13.0197 26.57C15.0697 25.9 17.0898 25.16 19.1198 24.44C19.1798 24.42 19.2198 24.37 19.2598 24.34C18.7598 22.97 18.3198 21.58 17.7498 20.25C15.8598 15.78 17.0998 11.18 21.0498 8.37998C21.7898 7.85998 22.6498 7.48997 23.4998 7.17997C25.9698 6.25997 28.4698 5.43001 30.9498 4.53001C34.0998 3.39001 37.2198 2.12995 40.4098 1.09995C42.3098 0.489953 44.2998 0.530006 46.2397 1.28001C49.1297 2.41001 51.0298 4.42996 51.9998 7.35996C52.4398 8.67996 52.9698 9.97996 53.4298 11.29C53.5598 11.66 53.7197 11.75 54.0998 11.62C57.1797 10.53 60.2098 9.28998 63.3498 8.43998C65.9297 7.73998 68.5898 7.87996 71.2198 8.66996C74.6198 9.67996 77.3798 11.57 79.5798 14.3C80.7398 15.75 81.5498 17.42 82.1698 19.18C83.3398 22.46 84.5498 25.73 85.7398 29C86.6698 31.56 87.5898 34.12 88.5198 36.68C89.6498 39.77 90.7798 42.85 91.9198 45.94C92.7198 48.11 93.5398 50.27 93.6298 52.62C93.7098 54.67 93.3798 56.63 92.7498 58.59L92.7798 58.58ZM46.4398 14.39C46.2198 13.86 46.0397 13.44 45.8797 13.02C45.4398 11.86 45.0298 10.69 44.5798 9.53996C44.1698 8.48995 43.3097 8.18 42.2798 8.59C41.0498 9.08 39.7898 9.49998 38.5398 9.93998C37.0398 10.47 35.5398 10.99 34.0498 11.53C32.5598 12.07 31.0798 12.64 29.5898 13.18C28.3197 13.64 27.0298 14.04 25.7798 14.53C24.6898 14.95 24.3498 15.75 24.7398 16.84C25.1798 18.09 25.6498 19.33 26.1398 20.57C26.5698 21.66 26.5798 21.64 27.6998 21.23C30.5198 20.2 33.3498 19.2 36.1698 18.18C37.8298 17.58 39.4797 16.97 41.1297 16.36C42.8797 15.71 44.6298 15.05 46.4398 14.38V14.39ZM72.9698 24.95C72.9698 24.72 72.8598 24.57 72.6498 24.48C71.9898 24.22 71.3398 23.93 70.6798 23.69C69.8998 23.42 69.4298 22.92 69.2898 22.1C69.1698 21.38 68.9998 20.67 68.8598 19.95C68.8098 19.7 68.6898 19.5299 68.4298 19.4699C68.1798 19.4099 68.0298 19.5399 67.8798 19.7199C67.3798 20.3199 66.8698 20.91 66.3698 21.5C65.9898 21.94 65.5298 22.19 64.9298 22.13C64.1198 22.05 63.2998 21.95 62.4897 21.84C62.2397 21.81 62.0298 21.84 61.8898 22.08C61.7598 22.29 61.7998 22.48 61.9298 22.69C62.3698 23.38 62.7798 24.08 63.2198 24.77C63.5298 25.26 63.5898 25.73 63.3198 26.27C62.9698 26.96 62.6798 27.68 62.3498 28.39C62.2197 28.66 62.1597 28.9 62.3797 29.15C62.5798 29.38 62.8097 29.3 63.0597 29.24C63.9198 29.03 64.7798 28.84 65.6098 28.64C66.0598 28.68 66.4398 28.76 66.7598 29.06C67.3498 29.61 67.9498 30.14 68.5398 30.69C68.7198 30.86 68.8898 30.98 69.1598 30.87C69.3998 30.76 69.5098 30.59 69.5198 30.33C69.5698 29.53 69.6698 28.73 69.6898 27.92C69.7098 27.32 69.9798 26.93 70.4898 26.65C71.2198 26.25 71.9398 25.83 72.6598 25.42C72.8598 25.31 72.9698 25.17 72.9598 24.93L72.9698 24.95ZM77.7698 30.13C77.7598 29.94 77.5198 29.95 77.4098 29.83C77.3798 29.8 77.3198 29.78 77.2698 29.77C76.4698 29.61 76.1198 29.08 76.0798 28.3C76.0798 28.24 76.0598 28.17 76.0498 28.11C76.0198 27.98 76.0198 27.82 75.8398 27.77C75.6598 27.72 75.5998 27.88 75.5098 27.98C74.5798 29.01 74.9198 28.99 73.4398 28.82C73.4098 28.82 73.3898 28.82 73.3498 28.82C73.2398 28.82 73.0998 28.76 73.0198 28.91C72.9398 29.0499 73.0198 29.16 73.0898 29.27C73.2498 29.53 73.4098 29.8 73.5798 30.06C73.7198 30.28 73.7498 30.5 73.6198 30.75C73.4698 31.05 73.3298 31.35 73.2098 31.66C73.0998 31.94 73.2197 32.07 73.5198 32.01C73.5998 32 73.6798 31.99 73.7398 31.96C74.5298 31.61 75.1798 31.7899 75.6998 32.4699C75.7197 32.4899 75.7398 32.51 75.7598 32.52C75.8798 32.6 75.9597 32.78 76.1497 32.71C76.3597 32.63 76.3298 32.44 76.3298 32.28C76.3298 31.55 76.4098 30.87 77.2398 30.58C77.3198 30.55 77.3898 30.49 77.4598 30.44C77.5798 30.35 77.8098 30.34 77.7998 30.14L77.7698 30.13ZM69.5698 47.95C69.6398 47.95 69.7098 47.9599 69.7898 47.9699C70.1998 46.2199 70.9498 44.52 70.5298 42.65C70.4498 42.3 70.3298 41.8699 70.0698 41.66C69.7098 41.3699 69.2197 41.13 68.7698 41.1C68.5698 41.09 68.2498 41.61 68.1298 41.94C67.8298 42.82 67.6298 43.73 67.3798 44.63C67.4298 44.65 67.4697 44.67 67.5198 44.69C67.5598 44.62 67.6098 44.5499 67.6398 44.4699C67.9798 43.6899 68.2998 42.91 68.6498 42.14C68.7298 41.96 68.9098 41.77 69.0798 41.71C69.1698 41.68 69.4198 41.9 69.4798 42.05C69.6598 42.49 69.8898 42.95 69.8898 43.41C69.8898 44.4 69.7798 45.4 69.7098 46.39C69.6698 46.91 69.6098 47.42 69.5598 47.94L69.5698 47.95Z" fill="#5E050C"/>
</svg>
