<svg width="93" height="91" viewBox="0 0 93 91" fill="none" xmlns="http://www.w3.org/2000/svg">
<path d="M28.0673 87.5733C28.3473 85.8333 28.6173 84.0933 28.9273 82.3633C28.9573 82.1833 29.1873 81.9634 29.3673 81.9034C32.0073 81.1034 34.2673 79.6533 36.1973 77.7433C37.3173 76.6333 38.2373 75.3333 39.2573 74.1233C39.5173 73.8133 39.3873 73.6133 39.1173 73.4333C37.7973 72.5333 37.4273 71.1233 37.1773 69.6833C37.1473 69.5333 37.3573 69.2134 37.5173 69.1634C39.5373 68.4934 41.5773 68.4534 43.6173 69.1034C43.7473 69.1434 43.8873 69.3834 43.8973 69.5334C43.9373 70.7734 43.7973 72.0733 43.0273 73.0033C42.4773 73.6633 42.5073 74.2533 42.5173 74.9233C42.5673 79.1633 41.2573 82.9934 38.9273 86.4634C37.9473 87.9234 36.6173 89.1634 35.4173 90.4734C35.2773 90.6234 34.9373 90.6934 34.7173 90.6534C32.6773 90.3534 30.6273 90.0233 28.5973 89.6733C28.4373 89.6433 28.2273 89.3934 28.2173 89.2234C28.1673 88.6834 28.1973 88.1334 28.1973 87.5934C28.1573 87.5934 28.1073 87.5833 28.0673 87.5733ZM41.9073 44.9433C41.2373 43.8733 40.4873 42.8733 39.1573 42.4833C37.9473 42.1333 36.9973 42.6033 36.4873 43.7633C35.5273 45.9533 37.3373 50.0434 39.5573 51.1034C40.5573 51.5734 41.9873 51.3334 42.3373 50.6034C42.6473 49.9434 42.8173 49.2233 42.9773 48.7433C42.8173 47.2433 42.5873 46.0133 41.9173 44.9533L41.9073 44.9433ZM51.0773 40.7033C50.6773 40.1233 50.2573 39.5733 49.5073 39.4233C48.8573 39.2933 48.5973 39.4633 48.5673 40.1233C48.4473 42.6633 49.4273 44.7733 51.1573 46.5733C51.4973 46.9233 51.9773 47.2834 52.4173 46.9734C52.7173 46.7634 52.7873 46.2133 52.9573 45.8133C52.9773 45.7533 52.9573 45.6833 52.9573 45.6233C52.8073 43.8033 52.1073 42.1833 51.0773 40.7033ZM91.7973 57.9034C90.7573 61.1034 88.8073 63.6333 86.1773 65.6433C84.7673 66.7233 83.1773 67.5133 81.4573 68.0533C80.0273 68.5033 78.6573 69.1033 77.2573 69.6333C76.1773 70.0333 75.0973 70.4433 74.0173 70.8233C72.6873 71.2933 71.3373 71.7233 70.0073 72.2033C68.5173 72.7433 67.0373 73.3233 65.5473 73.8733C64.5273 74.2533 63.5173 74.6333 62.4873 74.9933C61.0473 75.4933 59.5973 75.9633 58.1673 76.4833C56.6973 77.0133 55.2373 77.5933 53.7773 78.1433C53.5173 78.2433 53.2573 78.3333 52.8973 78.3133C53.0773 78.0433 53.2773 77.7733 53.4373 77.4933C55.8073 73.5533 58.9373 70.2533 62.3273 67.2033C65.0673 64.7433 67.5273 62.0733 69.3673 58.8733C70.9173 56.1833 72.1673 53.3633 73.0773 50.3933C73.1973 50.0033 73.0973 49.8233 72.7173 49.7333C72.2273 49.6133 71.7473 49.4734 71.2173 49.3334C71.4573 48.8034 71.6773 48.2733 71.9273 47.7533C73.2373 45.0233 73.9473 42.1333 74.1073 39.1333C74.1573 38.2733 73.8673 37.3834 73.6773 36.5234C73.6173 36.2734 73.3973 36.0334 73.1973 35.8534C72.6173 35.3434 72.0773 35.4933 71.8773 36.2333C71.6173 37.2033 71.4273 38.1834 71.1873 39.1534C71.1473 39.3234 70.9973 39.4633 70.9073 39.6133C70.7873 39.4533 70.5873 39.3133 70.5473 39.1433C70.2173 37.8533 69.9473 36.5534 69.6073 35.2734C69.2673 34.0134 68.3673 33.2233 67.3873 33.1933C66.8473 33.1733 66.5573 33.3533 66.5873 33.9333C66.6673 35.3633 66.7273 36.8033 66.7873 38.2433C66.7873 38.4533 66.7873 38.6733 66.7873 38.8933C66.2673 39.0733 66.0673 38.8833 65.9273 38.3633C65.5373 36.9133 65.1673 35.4334 64.0273 34.3434C63.7473 34.0734 63.4073 33.8533 63.0573 33.7033C62.3373 33.4033 61.9273 33.7034 62.0273 34.4734C62.1873 35.6134 62.3773 36.7533 62.6173 37.8833C63.2273 40.8233 63.1973 43.7734 62.6873 46.7134C62.6673 46.8134 62.6273 46.9133 62.5773 47.0633C62.1573 46.9733 61.7373 46.9134 61.3573 46.7834C60.8673 46.6134 60.7473 46.7533 60.6673 47.2633C60.0273 51.5533 58.5473 55.5033 55.5173 58.6933C54.1973 60.0833 52.5773 61.1933 51.0873 62.4233C50.9473 62.5333 50.7573 62.5834 50.5073 62.5334C51.0873 62.0734 51.7073 61.6534 52.2573 61.1534C54.6073 59.0034 55.9473 56.3634 56.1573 53.1534C56.3973 49.4434 55.5173 45.9433 54.2673 42.4933C53.2973 39.8033 51.5973 37.6233 49.5373 35.7033C48.9573 35.1633 48.2573 34.7333 47.5773 34.3133C47.2673 34.1133 47.1673 33.9634 47.2673 33.5934C47.9673 30.8534 47.8173 28.1533 46.8073 25.5133C46.5573 24.8633 46.4773 24.8733 45.8973 25.3133C44.4873 26.3833 43.0673 27.4333 41.6473 28.4933C40.5273 29.3333 39.4073 30.1833 38.3173 31.0033C37.9473 29.4633 37.5673 27.9033 37.1573 26.1933C36.8473 26.4233 36.6973 26.5333 36.5573 26.6333C35.2873 27.5533 34.0073 28.4734 32.7473 29.4134C32.1773 29.8334 31.6373 30.3133 31.0573 30.7333C29.1973 32.1133 27.3173 33.4533 25.4773 34.8633C22.2673 37.3333 19.8873 40.4333 18.6573 44.3233C17.9973 46.4133 17.6873 48.5634 17.8573 50.7734C17.8973 51.2234 17.7973 51.5034 17.4273 51.8334C16.2173 52.8734 15.8373 54.3234 15.8773 55.8434C15.9173 57.3534 16.4273 58.7633 17.3773 59.9533C18.5573 61.4233 20.1273 62.0434 21.9973 61.8334C22.5273 61.7734 22.8473 61.8333 23.2373 62.3233C23.7373 62.9733 24.5073 63.4134 25.1973 63.9034C25.7573 64.3034 26.3673 64.6333 26.9673 64.9833C30.1273 66.8933 33.6273 67.3033 37.2273 67.2433C37.3973 67.2433 37.5673 67.2433 37.7273 67.2433C37.7373 67.3033 37.7573 67.3534 37.7673 67.4134C37.3873 67.5234 37.0173 67.6633 36.6373 67.7333C33.3973 68.3233 30.1373 68.5833 26.8973 67.8133C25.5573 67.4933 24.2873 66.8833 23.0273 66.3033C22.2673 65.9533 21.5973 65.4133 20.8673 64.9833C20.7473 64.9133 20.5673 64.8734 20.4373 64.9134C18.3273 65.5234 16.2673 66.2433 14.3973 67.4233C12.4373 68.6533 10.6573 70.1133 9.36733 72.0433C8.29733 73.6433 7.42733 75.3734 6.54733 76.9034C6.36733 73.9834 6.69733 70.9334 8.21733 68.0934C8.34733 67.8534 8.39733 67.4734 8.30733 67.2234C6.33733 61.7634 4.32733 56.3134 2.35733 50.8434C1.62733 48.8234 0.777331 46.8034 0.357331 44.7134C-0.882669 38.4634 1.13733 33.2833 5.90733 29.1133C7.69733 27.5533 9.80733 26.6233 12.0373 25.8933C14.0873 25.2233 16.1073 24.4833 18.1373 23.7633C18.1973 23.7433 18.2373 23.6934 18.2773 23.6634C17.7773 22.2934 17.3373 20.9033 16.7673 19.5733C14.8773 15.1033 16.1173 10.5033 20.0673 7.70335C20.8073 7.18335 21.6673 6.81333 22.5173 6.50333C24.9873 5.58333 27.4873 4.75337 29.9673 3.85337C33.1173 2.71337 36.2373 1.45332 39.4273 0.423317C41.3273 -0.186683 43.3173 -0.14663 45.2573 0.60337C48.1473 1.73337 50.0473 3.75333 51.0173 6.68333C51.4573 8.00333 51.9873 9.30332 52.4473 10.6133C52.5773 10.9833 52.7373 11.0733 53.1173 10.9433C56.1973 9.85334 59.2273 8.61334 62.3673 7.76334C64.9473 7.06334 67.6073 7.20332 70.2373 7.99332C73.6373 9.00332 76.3973 10.8933 78.5973 13.6233C79.7573 15.0733 80.5673 16.7433 81.1873 18.5033C82.3573 21.7833 83.5673 25.0533 84.7573 28.3233C85.6873 30.8833 86.6073 33.4433 87.5373 36.0033C88.6673 39.0933 89.7973 42.1733 90.9373 45.2633C91.7373 47.4333 92.5573 49.5933 92.6473 51.9433C92.7273 53.9933 92.3973 55.9534 91.7673 57.9134L91.7973 57.9034ZM45.4573 13.7134C45.2373 13.1834 45.0573 12.7634 44.8973 12.3434C44.4573 11.1834 44.0473 10.0133 43.5973 8.86332C43.1873 7.81332 42.3273 7.50337 41.2973 7.91337C40.0673 8.40337 38.8073 8.82334 37.5573 9.26334C36.0573 9.79334 34.5573 10.3134 33.0673 10.8534C31.5773 11.3934 30.0973 11.9633 28.6073 12.5033C27.3373 12.9633 26.0473 13.3634 24.7973 13.8534C23.7073 14.2734 23.3673 15.0734 23.7573 16.1634C24.1973 17.4134 24.6673 18.6533 25.1573 19.8933C25.5873 20.9833 25.5973 20.9633 26.7173 20.5533C29.5373 19.5233 32.3673 18.5233 35.1873 17.5033C36.8473 16.9033 38.4973 16.2933 40.1473 15.6833C41.8973 15.0333 43.6473 14.3733 45.4573 13.7033V13.7134ZM71.9873 24.2734C71.9873 24.0434 71.8773 23.8933 71.6673 23.8033C71.0073 23.5433 70.3573 23.2533 69.6973 23.0133C68.9173 22.7433 68.4473 22.2433 68.3073 21.4233C68.1873 20.7033 68.0173 19.9934 67.8773 19.2734C67.8273 19.0234 67.7073 18.8533 67.4473 18.7933C67.1973 18.7333 67.0473 18.8633 66.8973 19.0433C66.3973 19.6433 65.8873 20.2333 65.3873 20.8233C65.0073 21.2633 64.5473 21.5133 63.9473 21.4533C63.1373 21.3733 62.3173 21.2734 61.5073 21.1634C61.2573 21.1334 61.0473 21.1634 60.9073 21.4034C60.7773 21.6134 60.8173 21.8033 60.9473 22.0133C61.3873 22.7033 61.7973 23.4034 62.2373 24.0934C62.5473 24.5834 62.6073 25.0534 62.3373 25.5934C61.9873 26.2834 61.6973 27.0034 61.3673 27.7134C61.2373 27.9834 61.1773 28.2234 61.3973 28.4734C61.5973 28.7034 61.8273 28.6233 62.0773 28.5633C62.9373 28.3533 63.7973 28.1634 64.6273 27.9634C65.0773 28.0034 65.4573 28.0833 65.7773 28.3833C66.3673 28.9333 66.9673 29.4633 67.5573 30.0133C67.7373 30.1833 67.9073 30.3033 68.1773 30.1933C68.4173 30.0833 68.5273 29.9134 68.5373 29.6534C68.5873 28.8534 68.6873 28.0533 68.7073 27.2433C68.7273 26.6433 68.9973 26.2534 69.5073 25.9734C70.2373 25.5734 70.9573 25.1533 71.6773 24.7433C71.8773 24.6333 71.9873 24.4933 71.9773 24.2533L71.9873 24.2734ZM76.7873 29.4533C76.7773 29.2633 76.5373 29.2734 76.4273 29.1534C76.3973 29.1234 76.3373 29.1034 76.2873 29.0934C75.4873 28.9334 75.1373 28.4033 75.0973 27.6233C75.0973 27.5633 75.0773 27.4933 75.0673 27.4333C75.0373 27.3033 75.0373 27.1434 74.8573 27.0934C74.6773 27.0434 74.6173 27.2033 74.5273 27.3033C73.5973 28.3333 73.9373 28.3133 72.4573 28.1433C72.4273 28.1433 72.4073 28.1433 72.3673 28.1433C72.2573 28.1433 72.1173 28.0833 72.0373 28.2333C71.9573 28.3733 72.0373 28.4834 72.1073 28.5934C72.2673 28.8534 72.4273 29.1233 72.5973 29.3833C72.7373 29.6033 72.7673 29.8233 72.6373 30.0733C72.4873 30.3733 72.3473 30.6733 72.2273 30.9833C72.1173 31.2633 72.2373 31.3934 72.5373 31.3334C72.6173 31.3234 72.6973 31.3134 72.7573 31.2834C73.5473 30.9334 74.1973 31.1133 74.7173 31.7933C74.7373 31.8133 74.7573 31.8334 74.7773 31.8434C74.8973 31.9234 74.9773 32.1034 75.1673 32.0334C75.3773 31.9534 75.3473 31.7634 75.3473 31.6034C75.3473 30.8734 75.4273 30.1934 76.2573 29.9034C76.3373 29.8734 76.4073 29.8133 76.4773 29.7633C76.5973 29.6733 76.8273 29.6634 76.8173 29.4634L76.7873 29.4533ZM68.5873 47.2734C68.6573 47.2734 68.7273 47.2833 68.8073 47.2933C69.2173 45.5433 69.9673 43.8434 69.5473 41.9734C69.4673 41.6234 69.3473 41.1933 69.0873 40.9833C68.7273 40.6933 68.2373 40.4533 67.7873 40.4233C67.5873 40.4133 67.2673 40.9333 67.1473 41.2633C66.8473 42.1433 66.6473 43.0533 66.3973 43.9533C66.4473 43.9733 66.4873 43.9933 66.5373 44.0133C66.5773 43.9433 66.6273 43.8733 66.6573 43.7933C66.9973 43.0133 67.3173 42.2334 67.6673 41.4634C67.7473 41.2834 67.9273 41.0934 68.0973 41.0334C68.1873 41.0034 68.4373 41.2233 68.4973 41.3733C68.6773 41.8133 68.9073 42.2733 68.9073 42.7333C68.9073 43.7233 68.7973 44.7234 68.7273 45.7134C68.6873 46.2334 68.6273 46.7433 68.5773 47.2633L68.5873 47.2734Z" fill="white"/>
</svg>
